# xmcd CD database file
#
# Track frame offsets:
#	150
#	6400
#	19527
#	25239
#	40625
#	56511
#	69193
#	87077
#	102986
#	116652
#	128805
#
# Disc length: 1945 seconds
#
# Revision: 0
# Processed by: cddbd v1.5.2PL0 Copyright (c) Steve Scherf et al.
# Submitted via: CDex 1.51
#
DISCID=8007970b
DTITLE=Various Artist - Prayers of Thosamling
DYEAR=1900
DGENRE=New Age
TTITLE0=Intro
TTITLE1=Refuge and Bodhicitta
TTITLE2=Four Immeasurables
TTITLE3=Seven Limb Prayer
TTITLE4=Long Mandala
TTITLE5=Manjushri
TTITLE6=Buddha's Life Stories
TTITLE7=Calling the Guru from Afar
TTITLE8=Chenrezig
TTITLE9=His Holiness Long Life Prayer
TTITLE10=Prayer of Guru Devotion
EXTD=
EXTT0=
EXTT1=
EXTT2=
EXTT3=
EXTT4=
EXTT5=
EXTT6=
EXTT7=
EXTT8=
EXTT9=
EXTT10=
PLAYORDER=
